<svg xmlns="http://www.w3.org/2000/svg" aria-hidden="true" style="position:absolute;width:0;height:0;overflow:hidden">
  <defs>
    <symbol id="iconfacebook-ink" viewBox="0 0 32 32">
      <path d="M22.048 32V19.616h4.148l.62-4.814h-4.768V11.73c0-1.394.388-2.345 2.386-2.345h2.549V5.079a34.151 34.151 0 0 0-3.716-.19c-3.675 0-6.19 2.244-6.19 6.364v3.548h-4.156v4.814h4.156v12.384h-15.3a1.781 1.781 0 0 1-1.778-1.778V1.777A1.781 1.781 0 0 1 1.777-.001h28.444a1.776 1.776 0 0 1 1.778 1.778v28.444a1.776 1.776 0 0 1-1.778 1.778h-8.174z"/>
    </symbol>
    <symbol id="iconinstagram-ink" viewBox="0 0 32 32">
      <path d="M16 0c4.347 0 4.89.016 6.595.096 1.704.08 2.864.347 3.885.744a7.79 7.79 0 0 1 2.835 1.845A7.852 7.852 0 0 1 31.16 5.52c.395 1.019.664 2.181.744 3.885.075 1.706.096 2.248.096 6.595s-.016 4.89-.096 6.595c-.08 1.704-.349 2.864-.744 3.885a7.804 7.804 0 0 1-1.845 2.835 7.873 7.873 0 0 1-2.835 1.845c-1.019.395-2.181.664-3.885.744-1.706.075-2.248.096-6.595.096s-4.89-.016-6.595-.096c-1.704-.08-2.864-.349-3.885-.744a7.83 7.83 0 0 1-2.835-1.845A7.852 7.852 0 0 1 .84 26.48c-.397-1.019-.664-2.181-.744-3.885C.021 20.889 0 20.347 0 16s.016-4.89.096-6.595C.176 7.699.443 6.541.84 5.52a7.796 7.796 0 0 1 1.845-2.835A7.83 7.83 0 0 1 5.52.84C6.541.443 7.699.176 9.405.096 11.111.021 11.653 0 16 0zm0 8a8 8 0 1 0 0 16 8 8 0 0 0 0-16zm10.4-.4a2 2 0 1 0-4.001.001A2 2 0 0 0 26.4 7.6zM16 11.2a4.8 4.8 0 1 1 0 9.6 4.8 4.8 0 0 1 0-9.6z"/>
    </symbol>
    <symbol id="iconlogo-ink" viewBox="0 0 32 32">
      <path d="m16 0 2.254 8.324L24.65 2.54l-2.604 8.221 8.508-1.408-6.636 5.508 7.919 3.416-8.56 1.046 4.815 7.154-7.767-3.748.183 8.622L16 23.999l-4.508 7.352.183-8.622-7.767 3.748 4.815-7.154-8.56-1.046 7.919-3.416-6.636-5.508 8.508 1.408L7.35 2.54l6.396 5.784L16 0z"/>
    </symbol>
    <symbol id="iconto-buy" viewBox="0 0 32 32">
      <path stroke-linecap="round" stroke-linejoin="round" stroke-width="2.909" d="M1.333 5.697h5.333l3.573 17.853a2.671 2.671 0 0 0 2.666 2.147h12.96a2.667 2.667 0 0 0 2.666-2.147l2.133-11.187H7.997"/>
    </symbol>
    <symbol id="iconyoutube-ink" viewBox="0 0 32 32">
      <path d="M31.269 7.197C32 10.048 32 16 32 16s0 5.952-.731 8.803c-.406 1.576-1.595 2.816-3.101 3.235C25.434 28.8 16 28.8 16 28.8s-9.429 0-12.168-.762c-1.512-.426-2.699-1.664-3.101-3.235C0 21.952 0 16 0 16s0-5.952.731-8.803c.406-1.576 1.595-2.816 3.101-3.235C6.571 3.2 16 3.2 16 3.2s9.434 0 12.168.762c1.512.426 2.699 1.664 3.101 3.235zM12.8 21.6l9.6-5.6-9.6-5.6v11.2z"/>
    </symbol>
    <symbol id="iconicon-section" viewBox="0 0 32 32">
    <path stroke-linejoin="miter" stroke-linecap="butt" stroke-miterlimit="4" stroke-width="1.2152" d="M18.892 8.88l4.813-4.352-2.259 7.131 7.38-1.221-5.756 4.777 6.868 2.963-7.425 0.907 4.176 6.206-6.737-3.251 0.021 0.991 0.138 6.488-3.91-6.377-3.91 6.377 0.137-6.488 0.021-0.991-6.737 3.251 4.177-6.206-7.424-0.907 6.868-2.963-5.756-4.777 7.38 1.221-2.259-7.131 5.549 5.017 0.259-0.956 1.695-6.264 1.955 7.22 0.735-0.665z"></path>
    </symbol>
  </defs>
</svg>
