<?xml version="1.0" standalone="no"?>
<!DOCTYPE svg PUBLIC "-//W3C//DTD SVG 20010904//EN"
 "http://www.w3.org/TR/2001/REC-SVG-20010904/DTD/svg10.dtd">
<svg version="1.0" xmlns="http://www.w3.org/2000/svg"
 width="700.000000pt" height="700.000000pt" viewBox="0 0 700.000000 700.000000"
 preserveAspectRatio="xMidYMid meet">
<metadata>
Created by potrace 1.14, written by Peter Selinger 2001-2017
</metadata>
<g transform="translate(0.000000,700.000000) scale(0.100000,-0.100000)"
fill="#000000" stroke="none">
<path d="M3342 6418 c-84 -310 -154 -570 -156 -578 -9 -36 -157 -579 -168
-617 l-13 -42 -45 41 c-25 22 -83 75 -130 117 -46 42 -111 101 -145 131 -33
31 -78 71 -99 90 -22 19 -49 44 -60 55 -12 11 -64 58 -116 105 -52 46 -113
101 -135 122 -22 20 -49 45 -61 55 -20 17 -157 141 -214 193 -15 14 -65 59
-111 100 -109 98 -185 167 -228 208 -19 17 -37 32 -41 32 -5 0 3 -35 17 -77
81 -255 368 -1163 434 -1370 16 -51 43 -137 60 -190 38 -119 46 -159 30 -149
-9 6 -276 53 -461 82 -19 3 -60 9 -90 14 -30 5 -72 12 -94 16 -21 3 -48 8 -60
10 -11 2 -37 6 -56 9 -19 3 -46 7 -60 10 -14 3 -54 10 -90 16 -36 5 -76 12
-90 14 -14 2 -54 9 -90 14 -36 6 -76 13 -90 16 -13 2 -42 7 -65 10 -22 4 -161
27 -309 51 -147 25 -270 43 -272 41 -4 -3 209 -182 866 -726 135 -112 259
-215 276 -230 17 -14 88 -73 158 -130 69 -57 126 -107 126 -111 0 -4 -8 -10
-17 -13 -18 -5 -612 -261 -690 -297 -24 -11 -45 -20 -48 -20 -2 0 -28 -11 -57
-24 -29 -13 -87 -38 -128 -55 -41 -18 -84 -36 -95 -42 -11 -5 -171 -74 -355
-154 -189 -81 -324 -145 -310 -146 14 0 34 -2 45 -4 11 -2 47 -7 80 -11 33 -3
67 -7 75 -9 8 -2 44 -6 80 -10 36 -3 72 -8 80 -10 8 -2 44 -7 80 -10 36 -3 76
-7 90 -10 14 -2 48 -7 75 -10 28 -3 64 -8 80 -10 17 -2 75 -9 130 -15 55 -6
111 -13 125 -15 14 -2 48 -7 76 -10 28 -3 59 -7 70 -9 10 -2 53 -7 94 -11 41
-3 82 -8 90 -10 8 -2 40 -7 70 -10 30 -3 71 -7 90 -10 19 -2 109 -14 200 -25
143 -18 200 -25 220 -29 3 -1 0 -5 -5 -9 -6 -4 -84 -117 -175 -252 -90 -135
-183 -273 -207 -308 -24 -35 -43 -67 -43 -72 0 -4 -3 -10 -7 -12 -5 -1 -32
-39 -62 -83 -168 -249 -539 -802 -545 -813 -5 -9 6 -6 30 6 22 11 82 40 134
65 100 47 279 133 545 262 88 43 219 106 290 140 365 176 440 212 558 270 70
34 128 57 128 51 2 -17 2 -35 -6 -396 -4 -184 -8 -402 -10 -485 -2 -82 -6
-294 -10 -470 -4 -176 -8 -364 -9 -417 -1 -54 -1 -98 0 -98 3 0 91 141 239
385 70 116 138 226 150 245 13 19 141 229 285 465 302 495 303 496 312 492 4
-1 70 -105 147 -232 78 -126 145 -237 150 -245 41 -66 210 -340 226 -366 11
-19 83 -136 160 -261 77 -125 141 -233 143 -240 2 -7 8 -13 13 -13 5 0 9 -4 9
-9 0 -9 129 -221 134 -221 1 0 1 42 0 93 -1 50 -5 234 -9 407 -3 173 -8 389
-10 480 -2 91 -7 320 -10 509 -4 189 -8 352 -10 363 -6 32 -46 49 505 -217
157 -76 344 -166 415 -200 72 -34 211 -102 310 -150 99 -48 218 -105 265 -127
47 -22 111 -54 143 -70 33 -16 55 -23 51 -16 -13 23 -409 613 -414 618 -3 3
-111 163 -239 355 -129 193 -268 399 -309 459 -41 59 -70 112 -65 116 4 5 41
11 82 15 41 4 83 8 92 10 10 2 44 6 76 10 32 3 65 8 73 10 8 2 42 6 75 10 33
3 76 7 95 10 19 3 58 7 85 10 28 3 84 10 125 15 41 5 93 12 115 14 97 12 302
37 325 41 14 2 54 7 90 10 36 4 72 8 80 10 8 2 44 6 80 10 36 3 72 8 80 10 8
2 42 6 75 10 33 3 96 10 140 16 44 5 94 12 110 14 17 2 37 4 45 5 17 1 5 6
-490 220 -206 89 -388 168 -405 175 -16 8 -205 89 -420 181 -214 92 -392 169
-395 171 -5 5 -3 7 235 204 145 120 531 440 580 481 11 9 94 78 185 153 91 75
176 146 190 158 14 13 73 63 133 111 59 49 105 91 103 93 -2 2 -30 0 -62 -6
-33 -6 -75 -13 -94 -16 -19 -3 -46 -7 -60 -10 -14 -3 -38 -7 -55 -9 -42 -7
-514 -85 -545 -90 -105 -18 -221 -38 -250 -42 -19 -3 -71 -11 -115 -19 -44 -8
-98 -17 -120 -20 -23 -3 -52 -7 -65 -10 -13 -3 -42 -7 -65 -10 -22 -3 -47 -8
-55 -10 -8 -3 -35 -7 -60 -11 -58 -8 -69 -10 -170 -28 -98 -18 -134 -20 -125
-7 3 5 18 52 34 103 16 51 61 194 101 318 39 124 98 308 130 410 62 199 169
536 226 715 20 61 37 117 39 125 2 8 11 37 19 63 l16 49 -37 -33 c-35 -30 -76
-68 -142 -129 -15 -14 -65 -59 -111 -100 -46 -41 -100 -91 -121 -110 -20 -19
-50 -46 -66 -59 -15 -13 -53 -47 -83 -75 -69 -64 -235 -215 -264 -239 -11 -10
-37 -33 -56 -50 -19 -18 -80 -72 -135 -122 -55 -49 -102 -92 -105 -95 -3 -3
-47 -43 -99 -90 -52 -47 -113 -102 -135 -122 -40 -36 -41 -37 -48 -15 -15 52
-39 138 -62 222 -63 235 -224 829 -268 990 -27 99 -51 187 -53 195 -2 8 -13
51 -25 95 -12 44 -34 124 -48 178 -14 53 -29 97 -32 97 -3 0 -75 -253 -158
-562z"/>
</g>
</svg>
